<?xml version="1.0" standalone="no"?>
<!DOCTYPE svg PUBLIC "-//W3C//DTD SVG 20010904//EN"
 "http://www.w3.org/TR/2001/REC-SVG-20010904/DTD/svg10.dtd">
<svg version="1.0" xmlns="http://www.w3.org/2000/svg"
 width="498.000000pt" height="501.000000pt" viewBox="0 0 498.000000 501.000000"
 preserveAspectRatio="xMidYMid meet">

<g transform="translate(0.000000,501.000000) scale(0.100000,-0.100000)"
fill="#000000" stroke="none">
<path d="M2335 5004 c-313 -31 -538 -83 -783 -183 -613 -247 -1116 -750 -1363
-1363 -188 -465 -233 -952 -134 -1445 180 -892 844 -1622 1716 -1886 252 -77
436 -102 734 -102 319 0 492 28 788 125 534 176 993 536 1310 1026 179 276
309 622 361 960 21 137 22 607 1 745 -67 450 -260 878 -551 1229 -82 98 -268
281 -369 360 -351 277 -793 461 -1245 520 -90 11 -398 21 -465 14z m755 -1344
l0 -550 550 0 550 0 0 -600 0 -600 -550 0 -550 0 0 -545 0 -545 -600 0 -600 0
0 545 0 545 -542 2 -543 3 -3 598 -2 597 545 0 545 0 0 543 c0 299 3 547 7
550 3 4 273 7 600 7 l593 0 0 -550z"/>
</g>
</svg>
